<svg xmlns="http://www.w3.org/2000/svg" viewBox="0 0 400 240" role="img" aria-label="תיקון מכשירי חשמל">
<defs><linearGradient id="g" x1="0" y1="0" x2="1" y2="1"><stop offset="0" stop-color="#6366f1"/><stop offset="1" stop-color="#a5b4fc"/></linearGradient>
<radialGradient id="s" cx=".5" cy=".5" r=".5"><stop offset="0" stop-color="#fff" stop-opacity=".55"/><stop offset="1" stop-color="#fff" stop-opacity="0"/></radialGradient></defs>
<rect width="400" height="240" fill="url(#g)"/><circle cx="347" cy="28" r="3" fill="#fff" opacity=".18"/><circle cx="44" cy="97" r="9" fill="#fff" opacity=".18"/><circle cx="282" cy="192" r="3" fill="#fff" opacity=".18"/><circle cx="358" cy="75" r="5" fill="#fff" opacity=".18"/><circle cx="198" cy="81" r="4" fill="#fff" opacity=".18"/><circle cx="220" cy="95" r="8" fill="#fff" opacity=".18"/><circle cx="228" cy="183" r="9" fill="#fff" opacity=".18"/><circle cx="198" cy="184" r="7" fill="#fff" opacity=".18"/><circle cx="88" cy="136" r="7" fill="#fff" opacity=".18"/><circle cx="156" cy="1" r="7" fill="#fff" opacity=".18"/><circle cx="326" cy="106" r="3" fill="#fff" opacity=".18"/><circle cx="359" cy="140" r="8" fill="#fff" opacity=".18"/><circle cx="14" cy="220" r="5" fill="#fff" opacity=".18"/><circle cx="23" cy="34" r="8" fill="#fff" opacity=".18"/><circle cx="96" cy="67" r="6" fill="#fff" opacity=".18"/><circle cx="82" cy="140" r="8" fill="#fff" opacity=".18"/><circle cx="5" cy="175" r="4" fill="#fff" opacity=".18"/><circle cx="227" cy="29" r="8" fill="#fff" opacity=".18"/><circle cx="184" cy="71" r="3" fill="#fff" opacity=".18"/><circle cx="47" cy="164" r="5" fill="#fff" opacity=".18"/><circle cx="107" cy="60" r="9" fill="#fff" opacity=".18"/><circle cx="113" cy="118" r="4" fill="#fff" opacity=".18"/><circle cx="99" cy="114" r="5" fill="#fff" opacity=".18"/><circle cx="223" cy="166" r="3" fill="#fff" opacity=".18"/><circle cx="59" cy="43" r="9" fill="#fff" opacity=".18"/><circle cx="379" cy="57" r="3" fill="#fff" opacity=".18"/><circle cx="168" cy="98" r="8" fill="#fff" opacity=".18"/><circle cx="133" cy="34" r="7" fill="#fff" opacity=".18"/>
<circle cx="200" cy="120" r="105" fill="url(#s)"/>
<circle cx="200" cy="120" r="74" fill="#fff" opacity=".92"/>
<circle cx="200" cy="120" r="74" fill="none" stroke="#6366f1" stroke-width="4" opacity=".35"/>
<text x="200" y="146" font-size="82" text-anchor="middle" font-family="'Apple Color Emoji','Segoe UI Emoji','Noto Color Emoji',sans-serif">🧺</text>
</svg>
